<svg xmlns="http://www.w3.org/2000/svg" width="281" height="54" viewBox="0 0 281 54">
    <g fill="#2C00A0" fill-rule="evenodd">
        <g stroke="#2C00A0">
            <path d="M.5.5v53h159.22V.5H.5zm17.865 18.752v-5.363h5.7v5.363h-5.7zm0 20.52V20.568h5.785v19.206h-5.785zm-5.002-19.12h3.154v4.372h-3.15v14.749H7.58v-14.75H4.9v-4.372h2.63v-.674c0-2.06.467-3.627 1.419-4.673.893-1.031 2.6-1.515 5.113-1.515.304 0 .614.011.93.035l.94.066.466.032v4.886l-.525-.027a27.44 27.44 0 0 0-1.407-.033c-.571 0-.842.122-.919.31-.128.314-.194.846-.185 1.593zM35.02 14.04v25.733h-5.803V14.04h5.803zm5.724 6.611v-5.1h5.751v5.1h2.983v4.406h-2.983v9.165c0 .618.076.985.134 1.042.058.055.57.136 1.405.136a13.034 13.034 0 0 0 .908-.032l.536-.038v4.592l-.482.018-2.276.084c-2.396.083-4.076-.341-5.024-1.323-.643-.654-.952-1.623-.952-2.885V25.057h-2.561v-4.406h2.56zm17.716 1.866c.4-.539.772-.948 1.118-1.23.994-.829 2.276-1.24 3.825-1.24.103 0 .194.004.272.01.053.005.187.014.394.024l.474.025v5.933l-.555-.062a12.593 12.593 0 0 0-1.327-.08c-1.761 0-2.883.541-3.45 1.611-.325.62-.498 1.631-.498 3.023v9.242h-5.836v-19.29h5.583v2.034zm19.39 8.693c-.08.035-.16.068-.24.099-.342.13-.793.245-1.359.35l-1.083.203c-.957.17-1.632.373-2.007.593-.586.345-.866.856-.866 1.6 0 .676.172 1.12.495 1.379.363.29.806.436 1.347.436.931 0 1.784-.27 2.571-.817.72-.5 1.111-1.451 1.142-2.895v-.948zm.29 6.982c-.509.447-1.063.846-1.665 1.196-1.11.637-2.365.955-3.753.955-1.78 0-3.27-.513-4.449-1.54-1.199-1.046-1.797-2.525-1.797-4.396 0-2.421.96-4.216 2.863-5.317 1.021-.586 2.485-.994 4.4-1.237l1.635-.201h-.002c.844-.106 1.438-.237 1.771-.384.511-.216.724-.497.724-.898 0-.578-.174-.923-.524-1.114-.436-.238-1.125-.366-2.06-.366-1 0-1.664.23-2.022.654-.276.34-.468.818-.568 1.441l-.067.422h-5.593l.034-.532c.107-1.695.589-3.105 1.454-4.221 1.377-1.748 3.702-2.607 6.93-2.607 2.087 0 3.951.415 5.585 1.246 1.743.886 2.616 2.562 2.616 4.942v8.39c0 .577.011 1.277.033 2.087.029.54.107.888.196 1.015.103.147.27.277.509.387l.29.134v1.525h-6.064l-.125-.316a5.803 5.803 0 0 1-.352-1.265zm10.815-17.54V15.55h5.752v5.101h2.982v4.406h-2.982v9.165c0 .618.075.985.134 1.042.057.055.57.136 1.405.136a13.034 13.034 0 0 0 .908-.032l.535-.038v4.592l-.481.018-2.276.084c-2.397.083-4.077-.341-5.025-1.323-.643-.654-.952-1.623-.952-2.885V25.057h-2.561v-4.406h2.561zm18.12-6.763v5.413h-5.869V13.89h5.87zm-5.869 25.884v-19.29h5.87v19.29h-5.87zm19.626-4.373c1.252 0 2.182-.429 2.836-1.295.68-.898 1.028-2.21 1.028-3.943 0-1.734-.348-3.042-1.027-3.934-.654-.861-1.584-1.288-2.837-1.288-1.254 0-2.187.427-2.847 1.289-.683.892-1.034 2.2-1.034 3.933 0 1.733.351 3.044 1.035 3.942.66.867 1.593 1.296 2.846 1.296zm9.902-5.238c0 2.797-.813 5.204-2.437 7.203-1.653 2.033-4.15 3.045-7.448 3.045s-5.796-1.012-7.448-3.045c-1.625-1.999-2.438-4.406-2.438-7.203 0-2.752.813-5.15 2.435-7.176 1.653-2.062 4.152-3.09 7.45-3.09 3.3 0 5.799 1.028 7.451 3.09 1.623 2.026 2.435 4.424 2.435 7.176zm9.471-7.99c.323-.376.64-.683.953-.918 1.08-.807 2.438-1.207 4.057-1.207 2.008 0 3.674.531 4.976 1.599 1.338 1.097 1.994 2.88 1.994 5.31v12.817h-5.92V28.148c0-.89-.116-1.556-.334-1.99-.38-.757-1.101-1.134-2.25-1.134-1.435 0-2.37.576-2.894 1.762-.284.658-.43 1.52-.43 2.587v10.4h-5.786V20.517h5.634v1.656zM165.649.5H280.5v1.455H165.649zM165.649 52.045H280.5V53.5H165.649z"/>
        </g>
        <path fill-rule="nonzero" d="M177.345 29.29c-.302.194-.608.351-.916.47-.308.12-.731.231-1.269.334l-1.076.205c-1.008.182-1.73.405-2.168.667-.74.444-1.109 1.134-1.109 2.068 0 .832.227 1.433.68 1.804.454.37 1.006.555 1.656.555 1.031 0 1.98-.308 2.85-.923.868-.615 1.319-1.738 1.352-3.367V29.29zm-2.908-2.273c.886-.114 1.519-.256 1.9-.427.683-.297 1.025-.758 1.025-1.385 0-.763-.26-1.29-.782-1.581-.52-.29-1.285-.436-2.294-.436-1.132 0-1.933.285-2.403.855-.336.421-.56.991-.673 1.71h-4.622c.101-1.63.55-2.97 1.345-4.018 1.266-1.641 3.44-2.461 6.521-2.461 2.006 0 3.788.404 5.345 1.213 1.558.81 2.336 2.336 2.336 4.581v8.547c0 .593.012 1.31.034 2.154.034.638.129 1.071.286 1.3.157.227.392.415.706.563v.718h-5.21a5.497 5.497 0 0 1-.303-1.06c-.056-.33-.101-.706-.135-1.128a9.873 9.873 0 0 1-2.286 1.864c-1.03.604-2.196.906-3.496.906-1.658 0-3.028-.482-4.11-1.445-1.08-.963-1.621-2.327-1.621-4.094 0-2.29.868-3.949 2.605-4.974.953-.559 2.353-.957 4.202-1.197l1.63-.205zm20.07-7.743c1.11 0 2.095.247 2.958.743a5.863 5.863 0 0 1 2.101 2.06v-8.889h4.857V38.35h-4.655v-2.58c-.684 1.105-1.463 1.908-2.337 2.41-.874.5-1.96.752-3.26.752-2.14 0-3.942-.88-5.404-2.641-1.462-1.761-2.193-4.02-2.193-6.778 0-3.18.72-5.681 2.16-7.504 1.44-1.824 3.364-2.735 5.773-2.735zm1.042 15.555c1.356 0 2.387-.513 3.093-1.538.705-1.026 1.058-2.354 1.058-3.983 0-2.28-.565-3.91-1.697-4.89a3.617 3.617 0 0 0-2.42-.888c-1.401 0-2.43.538-3.085 1.615-.655 1.077-.983 2.413-.983 4.009 0 1.72.333 3.097 1 4.128.667 1.031 1.678 1.547 3.034 1.547zm25.885-15.111h5.143l-6.605 18.632h-5.06l-6.571-18.632h5.378l3.815 13.744 3.9-13.744zm14.136-2.222h-4.857V13h4.857v4.496zm-4.857 2.222h4.857V38.35h-4.857V19.718zm21.8 6.684a4.369 4.369 0 0 0-.689-1.88c-.538-.753-1.372-1.129-2.504-1.129-1.614 0-2.717.815-3.311 2.445-.314.866-.47 2.017-.47 3.453 0 1.367.156 2.467.47 3.299.571 1.55 1.647 2.325 3.227 2.325 1.12 0 1.916-.308 2.387-.924.47-.615.756-1.413.857-2.393h4.89c-.111 1.482-.638 2.883-1.58 4.205-1.5 2.131-3.725 3.197-6.672 3.197-2.947 0-5.115-.889-6.504-2.667-1.39-1.777-2.084-4.085-2.084-6.923 0-3.202.767-5.692 2.302-7.47 1.535-1.778 3.653-2.666 6.353-2.666 2.297 0 4.177.524 5.64 1.572 1.462 1.049 2.327 2.9 2.596 5.556h-4.908zm16.792-3.163c-1.109 0-1.969.354-2.58 1.06-.61.707-.994 1.664-1.151 2.872h7.446c-.079-1.288-.462-2.265-1.152-2.932-.689-.666-1.543-1-2.563-1zm0-4.017c1.524 0 2.897.29 4.118.872 1.222.581 2.23 1.499 3.026 2.752.717 1.106 1.182 2.388 1.395 3.846.123.855.173 2.086.15 3.693h-12.538c.068 1.869.645 3.18 1.732 3.931.66.467 1.456.701 2.386.701.986 0 1.787-.285 2.404-.855.336-.307.633-.735.89-1.282h4.892c-.124 1.106-.69 2.228-1.698 3.368-1.569 1.812-3.765 2.718-6.589 2.718-2.33 0-4.386-.764-6.168-2.29-1.782-1.528-2.672-4.012-2.672-7.454 0-3.225.804-5.698 2.411-7.419 1.608-1.72 3.695-2.58 6.261-2.58z"/>
    </g>
</svg>
